<?xml version="1.0" encoding="UTF-8"?>
<!DOCTYPE svg PUBLIC "-//W3C//DTD SVG 1.1//EN" "http://www.w3.org/Graphics/SVG/1.1/DTD/svg11.dtd">
<!-- Creator: Orienteed SLU -->
<svg xmlns="http://www.w3.org/2000/svg" xml:space="preserve" width="8.26772in" height="5.07898in" version="1.1" style="shape-rendering:geometricPrecision; text-rendering:geometricPrecision; image-rendering:optimizeQuality; fill-rule:evenodd; clip-rule:evenodd"
viewBox="0 0 8268 5079"
 xmlns:xlink="http://www.w3.org/1999/xlink">
 <defs>
  <style type="text/css">
   <![CDATA[
    .fil1 {fill:#64A70B;fill-rule:nonzero}
    .fil0 {fill:#2E008B;fill-rule:nonzero}
   ]]>
  </style>
 </defs>
 <g id="Capa_x0020_1">
  <metadata id="CorelCorpID_0Corel-Layer"/>
  <path class="fil0" d="M2205 2200l150 0 0 95 2 0c17,-35 40,-62 71,-81 31,-19 66,-29 106,-29 9,0 18,1 27,3 9,2 18,4 27,6l0 145c-13,-3 -25,-6 -37,-8 -12,-2 -24,-3 -36,-3 -35,0 -63,6 -84,19 -21,13 -37,28 -49,44 -11,17 -19,33 -23,50 -4,17 -6,29 -6,38l0 321 -150 0 0 -600z"/>
  <path class="fil0" d="M2687 2200l150 0 0 600 -150 0 0 -600zm-21 -204l0 0c0,-24 9,-45 27,-63 18,-18 41,-27 68,-27 28,0 51,9 69,26 19,17 28,39 28,64 0,26 -9,47 -28,64 -19,17 -42,26 -69,26 -28,0 -50,-9 -68,-27 -18,-18 -27,-39 -27,-63z"/>
  <path class="fil0" d="M3684 2200l143 0 0 96 3 0c14,-30 36,-56 65,-78 29,-22 69,-33 119,-33 40,0 74,7 102,20 28,13 51,31 68,53 18,22 30,47 37,75 8,28 11,58 11,89l0 379 -150 0 0 -304c0,-17 -1,-35 -3,-56 -2,-20 -6,-40 -13,-58 -7,-18 -18,-33 -33,-45 -15,-12 -35,-18 -61,-18 -25,0 -46,4 -63,13 -17,8 -31,20 -43,34 -11,14 -19,30 -24,49 -5,18 -7,37 -7,58l0 328 -150 0 0 -600z"/>
  <path class="fil0" d="M4297 2327l0 -128 124 0 0 -174 150 0 0 174 165 0 0 128 -165 0 0 263c0,30 6,54 17,71 11,18 34,26 67,26 13,0 28,-1 44,-4 16,-3 28,-8 38,-14l0 126c-16,8 -35,13 -58,16 -23,3 -43,4 -61,4 -40,0 -73,-4 -98,-13 -25,-9 -45,-22 -60,-40 -15,-18 -25,-40 -30,-67 -5,-27 -8,-58 -8,-93l0 -275 -124 0z"/>
  <path class="fil0" d="M6357 2500c0,23 4,46 12,68 8,22 20,41 35,58 15,17 34,30 56,40 22,10 46,15 74,15 28,0 52,-5 74,-15 22,-10 40,-23 56,-40 15,-17 27,-36 35,-58 8,-22 12,-44 12,-68 0,-23 -4,-46 -12,-68 -8,-22 -20,-41 -35,-58 -15,-17 -34,-30 -56,-40 -22,-10 -46,-15 -74,-15 -28,0 -52,5 -74,15 -22,10 -40,23 -56,40 -15,17 -27,36 -35,58 -8,22 -12,44 -12,68zm355 210l0 0 -3 0c-22,37 -51,63 -88,80 -37,17 -76,25 -119,25 -47,0 -88,-8 -124,-24 -36,-16 -67,-39 -93,-67 -26,-28 -45,-62 -59,-100 -13,-38 -20,-80 -20,-124 0,-44 7,-85 21,-124 14,-38 34,-72 59,-100 25,-28 56,-51 92,-67 36,-16 75,-24 118,-24 28,0 53,3 75,9 22,6 41,13 58,23 17,9 31,19 43,29 12,10 21,21 29,31l4 0 0 -384 150 0 0 908 -143 0 0 -90z"/>
  <path class="fil0" d="M4959 2432c8,-22 20,-41 35,-58 15,-17 34,-30 56,-40 22,-10 46,-15 74,-15 28,0 52,5 74,15 16,7 30,17 42,28l-290 167c-2,-10 -3,-20 -3,-30 0,-23 4,-46 12,-68zm339 87l0 0c-2,16 -5,33 -10,48 -8,22 -20,41 -35,58 -1,1 -1,1 -2,2 -15,16 -33,29 -54,38 -22,10 -46,15 -74,15 -28,0 -52,-5 -74,-15 -19,-9 -35,-20 -49,-34l295 -170 134 -77c-2,-4 -3,-9 -5,-13 -14,-32 -32,-59 -54,-83 -5,-6 -10,-11 -15,-16 -29,-28 -64,-49 -104,-64 -40,-15 -83,-23 -128,-23 -45,0 -88,8 -128,23 -40,15 -75,36 -104,64 -29,28 -52,61 -69,99 -17,39 -26,82 -26,129 0,48 9,91 26,129 17,39 40,72 69,99 29,27 64,49 104,64 40,15 83,23 128,23 45,0 88,-8 128,-23 40,-15 75,-36 104,-64 24,-23 44,-50 60,-81 3,-6 6,-12 9,-18 12,-28 20,-59 24,-91l-150 -19z"/>
  <path class="fil0" d="M3117 2432c8,-22 20,-41 35,-58 15,-17 34,-30 56,-40 22,-10 46,-15 74,-15 28,0 52,5 74,15 16,7 30,17 42,28l-290 167c-2,-10 -3,-20 -3,-30 0,-23 4,-46 12,-68zm339 87l0 0c-2,16 -5,33 -10,48 -8,22 -20,41 -35,58 -1,1 -1,1 -2,2 -15,16 -33,29 -54,38 -22,10 -46,15 -74,15 -28,0 -52,-5 -74,-15 -19,-9 -35,-20 -49,-34l295 -170 134 -77c-2,-4 -3,-9 -5,-13 -14,-32 -32,-59 -54,-83 -5,-6 -10,-11 -15,-16 -29,-28 -64,-49 -104,-64 -40,-15 -83,-23 -128,-23 -45,0 -88,8 -128,23 -40,15 -75,36 -104,64 -29,28 -52,61 -69,99 -17,39 -26,82 -26,129 0,48 9,91 26,129 17,39 40,72 69,99 29,27 64,49 104,64 40,15 83,23 128,23 45,0 88,-8 128,-23 40,-15 75,-36 104,-64 24,-23 44,-50 60,-81 3,-6 6,-12 9,-18 12,-28 20,-59 24,-91l-150 -19z"/>
  <path class="fil1" d="M5665 2432c8,-22 20,-41 35,-58 15,-17 34,-30 56,-40 22,-10 46,-15 74,-15 28,0 52,5 74,15 16,7 30,17 42,28l-290 167c-2,-10 -3,-20 -3,-30 0,-23 4,-46 12,-68zm339 87l0 0c-2,16 -5,33 -10,48 -8,22 -20,41 -35,58 -1,1 -1,1 -2,2 -15,16 -33,29 -54,38 -22,10 -46,15 -74,15 -28,0 -52,-5 -74,-15 -19,-9 -35,-20 -49,-34l295 -170 134 -77c-2,-4 -3,-9 -5,-13 -14,-32 -32,-59 -54,-83 -5,-6 -10,-11 -15,-16 -29,-28 -64,-49 -104,-64 -40,-15 -83,-23 -128,-23 -45,0 -88,8 -128,23 -40,15 -75,36 -104,64 -29,28 -52,61 -69,99 -17,39 -26,82 -26,129 0,48 9,91 26,129 17,39 40,72 69,99 29,27 64,49 104,64 40,15 83,23 128,23 45,0 88,-8 128,-23 40,-15 75,-36 104,-64 24,-23 44,-50 60,-81 3,-6 6,-12 9,-18 12,-28 20,-59 24,-91l-150 -19z"/>
  <path class="fil0" d="M1894 2482c-15,40 -35,75 -62,104 -27,29 -59,52 -96,69 -38,17 -79,25 -125,25 -46,0 -87,-8 -124,-25 -37,-17 -69,-40 -96,-69 -27,-29 -47,-64 -62,-104 -15,-40 -22,-84 -22,-131 0,-44 7,-85 22,-124 15,-38 35,-72 62,-101 27,-29 59,-51 96,-68 37,-16 79,-24 124,-24 46,0 88,8 125,24 37,16 70,39 96,68 27,29 47,62 62,101 15,38 22,80 22,124 0,47 -7,91 -22,131zm152 -319l0 0c-23,-58 -56,-107 -98,-148 -42,-41 -91,-72 -149,-93 -55,-20 -116,-31 -182,-31 -3,0 -5,0 -8,0 -68,0 -131,11 -188,33 -57,22 -106,54 -148,94 -41,41 -74,90 -97,148 -23,58 -35,122 -35,193 0,69 12,132 35,189 23,57 56,105 97,146 41,40 90,72 148,94 57,22 120,33 188,33 69,-1 133,-13 190,-36 58,-23 107,-55 149,-96 42,-41 74,-90 98,-146 23,-57 35,-120 35,-189 0,-71 -12,-135 -35,-193z"/>
  <path class="fil1" d="M2069 2091l25 -236 -227 41c44,22 84,50 118,83 33,32 61,70 84,112z"/>
  <path class="fil1" d="M2366 3190c-1,-34 -20,-59 -58,-59 -38,0 -63,32 -63,59l121 0zm-121 31l0 0c0,35 33,59 68,59 23,0 41,-12 56,-30l29 22c-21,28 -51,41 -90,41 -64,0 -104,-46 -104,-106 0,-61 44,-106 105,-106 71,0 99,55 99,107l0 14 -162 0z"/>
  <polygon class="fil1" points="2539,3223 2434,3223 2434,3187 2539,3187 "/>
  <path class="fil1" d="M2723 3160c-14,-15 -29,-23 -50,-23 -42,0 -63,34 -63,72 0,38 26,69 65,69 21,0 36,-8 49,-23l27 27c-20,22 -47,31 -77,31 -62,0 -106,-43 -106,-105 0,-62 43,-107 106,-107 29,0 58,10 78,32l-29 26z"/>
  <path class="fil1" d="M2878 3277c41,0 67,-29 67,-70 0,-41 -26,-70 -67,-70 -41,0 -67,29 -67,70 0,41 26,70 67,70zm0 -177l0 0c60,0 108,47 108,106 0,59 -47,106 -108,106 -60,0 -107,-47 -107,-106 0,-59 47,-106 107,-106z"/>
  <path class="fil1" d="M3029 3106l36 0 0 32 1 0c4,-12 29,-37 65,-37 30,0 50,13 63,38 13,-25 40,-38 64,-38 62,0 77,44 77,90l0 118 -38 0 0 -113c0,-31 -6,-59 -43,-59 -37,0 -52,25 -52,61l0 110 -38 0 0 -106c0,-38 -6,-66 -43,-66 -28,0 -53,21 -53,67l0 105 -38 0 0 -202z"/>
  <path class="fil1" d="M3388 3106l36 0 0 32 1 0c4,-12 29,-37 65,-37 30,0 50,13 63,38 13,-25 40,-38 64,-38 62,0 77,44 77,90l0 118 -38 0 0 -113c0,-31 -6,-59 -43,-59 -37,0 -52,25 -52,61l0 110 -38 0 0 -106c0,-38 -6,-66 -43,-66 -28,0 -53,21 -53,67l0 105 -38 0 0 -202z"/>
  <path class="fil1" d="M3897 3190c-1,-34 -20,-59 -58,-59 -38,0 -63,32 -63,59l121 0zm-121 31l0 0c0,35 33,59 68,59 23,0 41,-12 55,-30l29 22c-21,28 -51,41 -90,41 -64,0 -104,-46 -104,-106 0,-61 44,-106 105,-106 71,0 99,55 99,107l0 14 -162 0z"/>
  <path class="fil1" d="M3980 3106l38 0 0 31 1 0c10,-21 35,-36 61,-36 6,0 12,1 17,3l-2 41c-6,-2 -13,-3 -19,-3 -38,0 -58,20 -58,65l0 102 -38 0 0 -202z"/>
  <path class="fil1" d="M4270 3160c-14,-15 -29,-23 -50,-23 -42,0 -63,34 -63,72 0,38 26,69 65,69 21,0 36,-8 49,-23l27 27c-20,22 -47,31 -77,31 -62,0 -106,-43 -106,-105 0,-62 43,-107 106,-107 29,0 58,10 78,32l-29 26z"/>
  <path class="fil1" d="M4477 3190c-1,-34 -20,-59 -58,-59 -38,0 -63,32 -63,59l121 0zm-121 31l0 0c0,35 33,59 68,59 23,0 41,-12 56,-30l29 22c-21,28 -51,41 -90,41 -64,0 -104,-46 -104,-106 0,-61 44,-106 105,-106 71,0 99,55 99,107l0 14 -162 0z"/>
  <path class="fil1" d="M4818 3160c-14,-15 -29,-23 -50,-23 -42,0 -63,34 -63,72 0,38 26,69 65,69 21,0 36,-8 49,-23l27 27c-20,22 -47,31 -77,31 -62,0 -106,-43 -106,-105 0,-62 43,-107 106,-107 29,0 58,10 78,32l-29 26z"/>
  <path class="fil1" d="M4973 3277c41,0 67,-29 67,-70 0,-41 -26,-70 -67,-70 -41,0 -67,29 -67,70 0,41 26,70 67,70zm0 -177l0 0c60,0 108,47 108,106 0,59 -47,106 -108,106 -60,0 -107,-47 -107,-106 0,-59 47,-106 107,-106z"/>
  <path class="fil1" d="M5124 3106l38 0 0 31 1 0c10,-21 35,-36 67,-36 39,0 73,23 73,77l0 130 -38 0 0 -119c0,-38 -22,-52 -46,-52 -32,0 -56,20 -56,67l0 104 -38 0 0 -202z"/>
  <path class="fil1" d="M5464 3157c-9,-11 -22,-20 -41,-20 -18,0 -34,8 -34,23 0,24 35,28 52,32 33,8 59,21 59,59 0,46 -42,64 -82,64 -33,0 -58,-9 -78,-36l29 -24c12,12 27,24 49,24 20,0 41,-8 41,-26 0,-23 -32,-27 -49,-31 -33,-8 -62,-19 -62,-58 0,-42 39,-62 77,-62 27,0 55,9 69,33l-30 23z"/>
  <path class="fil1" d="M5721 3308l-38 0 0 -31 -1 0c-10,21 -35,36 -67,36 -39,0 -73,-23 -73,-77l0 -130 38 0 0 119c0,38 22,52 46,52 32,0 56,-20 56,-67l0 -104 38 0 0 202z"/>
  <polygon class="fil1" points="5778,2986 5816,2986 5816,3308 5778,3308 "/>
  <path class="fil1" d="M5981 3139l-55 0 0 92c0,23 0,47 29,47 9,0 20,-1 27,-6l0 35c-9,5 -27,7 -35,7 -59,0 -60,-36 -60,-69l0 -105 -44 0 0 -33 44 0 0 -57 38 0 0 57 55 0 0 33z"/>
  <path class="fil1" d="M6135 3211c-36,0 -81,6 -81,39 0,23 17,33 44,33 43,0 58,-32 58,-59l0 -13 -21 0zm-108 -80l0 0c21,-20 52,-30 80,-30 60,0 85,32 85,67l0 103c0,14 0,26 2,37l-34 0c-1,-10 -1,-20 -1,-31l-1 0c-17,26 -40,36 -71,36 -38,0 -70,-21 -70,-61 0,-52 50,-70 111,-70l28 0 0 -9c0,-21 -15,-43 -48,-43 -29,0 -44,12 -58,23l-23 -24z"/>
  <path class="fil1" d="M6243 3106l38 0 0 31 1 0c10,-21 35,-36 67,-36 39,0 73,23 73,77l0 130 -38 0 0 -119c0,-38 -22,-52 -46,-52 -32,0 -56,20 -56,67l0 104 -38 0 0 -202z"/>
  <path class="fil1" d="M6621 3160c-14,-15 -29,-23 -50,-23 -42,0 -63,34 -63,72 0,38 26,69 65,69 21,0 36,-8 49,-23l27 27c-20,22 -47,31 -77,31 -62,0 -106,-43 -106,-105 0,-62 43,-107 106,-107 29,0 58,10 78,32l-29 26z"/>
  <path class="fil1" d="M6653 3106l44 0 60 158 1 0 57 -158 41 0 -96 246c-14,35 -27,59 -69,59 -12,0 -23,-1 -34,-6l5 -35c7,3 15,5 23,5 24,0 32,-13 39,-33l12 -32 -84 -204z"/>
 </g>
</svg>
